<svg xmlns="http://www.w3.org/2000/svg" width="1027" height="154" viewBox="0 0 1027 154" fill="none"><g clip-path="url(#clip0_1015_5499)"><path d="M40.7 102.6C18.5 102.6 1.1 92 0 70.5H29.7C30.3 78 34.7 80.6 39.8 80.6C44.8 80.6 48.6 78 48.6 73.4C48.5 57.4 -0.1 64.9 0.3 30.1C0.3 10.5 16.6 0 37.8 0C60.8 0 75.8 11.2 76.8 31.1H46.6C46.3 24.9 42.5 22 37.4 22C33.3 21.9 30 24.3 30 29.1C30 44 78.1 39.2 78.1 71.3C78.1 88.9 64.4 102.6 40.7 102.6Z" fill="white"></path><path d="M155 23.8001H118.8V40.1001H150.7V61.2001H118.8V79.2001H155V101.5H91V1.6001H155V23.8001Z" fill="white"></path><path d="M262.6 34.5001H232.7C229.6 29.2001 223.9 26.3001 216.2 26.3001C202.1 26.3001 193.6 36.1001 193.6 51.4001C193.6 68.6001 202.4 77.8001 218.9 77.8001C228.6 77.8001 235.6 73.3001 239.8 64.6001H211.8V44.6001H263.7V71.6001C257.7 86.2001 242.3 102.4 216.2 102.4C185.5 102.4 165.4 81.4001 165.4 51.4001C165.4 21.6001 185.4 0.600098 216.1 0.600098C241.3 0.600098 258.6 13.6001 262.6 34.5001Z" fill="white"></path><path d="M275.8 1.6001H303.5V59.7001C303.5 70.1001 308.2 76.6001 318.7 76.6001C329.2 76.6001 334.2 70.1001 334.2 59.7001V1.6001H362V59.7001C362 88.2001 342.1 102.7 318.1 102.7C294 102.7 275.8 88.2001 275.8 59.7001V1.6001Z" fill="white"></path><path d="M421.1 1.6001C445.9 1.6001 458.4 15.8001 458.4 33.7001C458.4 46.8001 451.3 58.1001 436.4 62.7001L459 101.7H427.9L408 64.8001H405V101.7H377.2V1.6001H421.1ZM418.8 24.8001H405V45.7001H418.8C426.3 45.7001 430.2 42.0001 430.2 35.2001C430.2 29.0001 426.4 24.8001 418.8 24.8001Z" fill="white"></path><path d="M471.1 1.6001H498.9V101.7H471.1V1.6001Z" fill="white"></path><path d="M517.8 1.6001H568.8L606.9 100.2L644.1 1.6001H695V153.4H652.8V69.6001L624.2 153.4H588.9L560 68.9001V153.3H517.8V1.6001Z" fill="#FFD400"></path><path d="M815.1 128.6H761.3L753.1 153.4H708.7L764.1 1.6001H812.8L867.9 153.4H823.3L815.1 128.6ZM788.2 47.2001L772 96.3001H804.5L788.2 47.2001Z" fill="#FFD400"></path><path d="M947.1 110.5L921.9 153.3H873.9L923.2 75.6L872.2 1.5H921.9L950.5 43.3L975 1.5H1023L974.4 78L1026.3 153.4H976.6L947.1 110.5Z" fill="#FFD400"></path><path d="M499.5 126.2H3.19995V149.2H499.5V126.2Z" fill="#FFD400"></path></g><defs><clipPath id="clip0_1015_5499"><rect width="1026.3" height="153.3" fill="white"></rect></clipPath></defs></svg>